<svg xmlns="http://www.w3.org/2000/svg" viewBox="0 0 277.8 86.5" fill="currentColor">
<g id="logo">
<path d="M135.2,6.2a.3.3,0,0,1-.3.3H122.4v-1a.3.3,0,0,1,.3-.3h12.2a.3.3,0,0,1,.3.3Zm2.4,8a1.4,1.4,0,0,0-1.4-1.5h-7.6c.1-.4.1-.7.2-1.1h8.7a1,1,0,0,0,0-1.9h-6.3V8.4h4.7a1.4,1.4,0,0,0,1.6-1.6v-2c0-1-.5-1.5-1.6-1.5H121.8c-1.1,0-1.6.5-1.6,1.5V6.2c0,4.8.1,8.6-1.4,11.3s1.5,2.6,2.1,1.3,1.5-6.5,1.5-10.4h6.5V9.7h-5.4a1,1,0,0,0,0,1.9h3c-.2,2.4-1,5-4,6-.9.3-.1,2.5,1.4,1.9a7.9,7.9,0,0,0,4.3-4.9h7a.2.2,0,0,1,.2.2c0,2.7-.1,3.2-4.1,2.3-1.1-.2-1.5,1.8-.4,2C136.9,20.4,137.6,19.1,137.6,14.2Zm-.2-11.8a1,1,0,0,0,0-2H120c-1.1,0-1.1,2,0,2ZM104.2,18.8a1.1,1.1,0,0,0,0-2.1H96.7V3h6.7a1,1,0,0,0,0-2H87.7a1,1,0,0,0,0,2h6.7V16.7H86.8c-1.2,0-1.2,2.1,0,2.1ZM72.1,6.1c.4-1.5-1.9-2-2.3-.7-2.1,6.4-6.5,10-15,11.4-1.5.3-1.1,2.8.7,2.5C64.7,17.9,70.3,12.7,72.1,6.1ZM61.5,4.3a40.8,40.8,0,0,0-5.9-3.1c-1.4-.6-2.5,1.5-1.1,2.2a35.1,35.1,0,0,1,5.8,3.2C61.4,7.4,63,5.4,61.5,4.3ZM38.7,2.4a1.1,1.1,0,0,1-1.1,1.1,1.1,1.1,0,0,1-1.2-1.1,1.2,1.2,0,0,1,1.2-1.2A1.1,1.1,0,0,1,38.7,2.4Zm1,14.8A98,98,0,0,0,33.3,1.9c-.6-1.3-2.8-.3-2.1,1a79,79,0,0,1,6,15.1A1.3,1.3,0,1,0,39.7,17.2ZM27.4,2.6c.3-1.4-2-1.8-2.3-.5a34.6,34.6,0,0,1-6.2,14.6A1.3,1.3,0,1,0,21,18.2,41.1,41.1,0,0,0,27.4,2.6Zm12.5-.2A2.3,2.3,0,0,0,37.6,0a2.4,2.4,0,0,0-2.4,2.4,2.3,2.3,0,0,0,2.4,2.3A2.3,2.3,0,0,0,39.9,2.4Z" fill-rule="evenodd"/>
<path d="M188.5,85.8V84.4l.2-.7.2-.6.2-.6.2-.6.2-.6.2-.5.3-.5.2-.5.3-.5.3-.5.2-.4.2-.4.3-.4.2-.3.4-.6.5-.5.4-.7.4-.6.3-.7.4-.7.3-.8.2-.7v.2l.2.9.3.9.3.9.3.9.4.8.4.8.2.4.2.4.3.4.3.4.3.4.3.4.4.5.3.4.4.4.5.5.4.4.5.4.5.5.6.4.5.4.6.4.6.3.6.4.7.3.7.3.7.2.7.3.7.2h.8l.8.2h2.2l.5-.2h.9l.5-.2h.5l.4-.2.5-.3.5-.2.4-.2.5-.3.5-.3.4-.4.5-.3.4-.4.5-.4.4-.5.5-.5.4-.5.4-.5.4-.6.5-.6.4-.7.3-.6.4-.8.4-.7v6.7l-.2.2-.2.2-.2.2-.2.2h-.2l-.2.2h-.9V86h16.8V83.7h-.6v-.2l-.2-.2v-.2l-.2-.2V79.5h0V66.8h10.2v16l-.2.3v.2l-.2.2-.2.2-.2.2h-.2l-.2.2h-.9V86h17.7V84.5l-.3-.3-.3-.3-.2-.2-.2-.3-.3-.3-.2-.3-.2-.4v-.3l-.2-.3-.2-.3V80.3h-.1V80h0v-41l.2-.4v-.3l.2-.2.2-.3.2-.2.2-.2.2-.2v-.2h.7V35H241.8v1h.3l.2.2h.3l.2.3.2.2.2.3.2.3v.3l.2.3v4.5h0V54.6H234.1V38.8l.2-.4v-.3l.2-.2.2-.3.2-.2.2-.2.2-.2.2-.2h.6V35H221.3v1h.3l.2.2h.3l.2.3.2.2.2.3.2.3v.3l.2.3v4.5h.1v3.4l-.2-.5v-.5l-.2-.6-.2-.5-.2-.6-.3-.5-.2-.5-.3-.5-.3-.5-.3-.5-.3-.5-.4-.5-.3-.4-.4-.5-.4-.4-.5-.4-.5-.4-.4-.4-.6-.3-.5-.3-.6-.3-.6-.3-.6-.3-.7-.2-.7-.2h-.7l-.8-.2h-3.6l-.6.2-.6.2-.5.3-.6.3-.6.3-.6.4-.6.4-.6.4-.6.4-.5.5-.6.5-.5.6-.5.5-.6.6-.5.7-.5.6-.4.7-.5.6-.4.7-.4.7-.4.8-.3.5V41.2l.2-.5.2-.4v-.4l.2-.4.2-.3.3-.3.2-.3.2-.3.2-.2.2-.2.2-.2h.3l.2-.2h1.5V35H182.6v1.7h.7l.2.2.3.3.2.2.2.3.2.3.2.3.2.3v3.3h0v.2h0l.2,1,.2.9.2,1V68.2l-.2.5v.6l-.3.5-.2.4-.2.5-.3.4-.3.3-.4.4-.3.3-.4.3-.4.2-.4.2-.4.2-.4.2h-3.9l-.4-.2H176l-.3-.3-.4-.2-.3-.3-.4-.3-.3-.3-.2-.4-.3-.4-.2-.4-.2-.5v-.5l-.3-1-.2-1-.2-1.1-.2-1-.2-1V48.1l.2-.8V45.9l.2-.7V44l.2-.5v-.6l.2-.4V40.8l.2-.5v-.4l.2-.4.2-.4.2-.4.2-.3.2-.3.3-.3.2-.2.2-.2.3-.2h.2l.2-.2h.9V34.7H163.6v1.7h.7l.2.2.3.2.2.2.2.3.2.3v5.1l-.3-.8-.2-.8-.3-.8-.3-.7-.3-.8-.4-.7-.4-.7L163,37l-.4-.7-.5-.6-.4-.6-.5-.5-.5-.5-.5-.5-.6-.5-.6-.4-.5-.4-.7-.3-.6-.3-.6-.3-.7-.3h-.6l-.7-.2h-5.8l-.6.2-.6.2-.6.2-.5.2-.6.2-.5.3-.6.3-.5.4-.5.4-.5.4-.5.4-.5.5-.5.5-.4.5-.5.6-.4.6-.4.7-.5.7-.3.7-.4.8-.4.8-.3.8-.4.9-.3,1-.3,1v1.4l-.2.4v.5l-.2.5v.5l-.2.6v1.2l-.2.6v.7l-.2.7v11l.2.9v1l.2,1,.2,1,.3,1,.2,1,.4,1.1.3,1,.4,1.1.5,1,.4,1.1.6,1.1.5,1,.7,1.1.4.5.5.5.5.5.5.5.5.5.5.4.5.4.6.4.5.4.6.4.5.3.6.3.6.2.6.3h.7l.6.2h1.8v.2H150l-.2.2h-1V86h16.8V83.9H164v-.2h-.1l-.2-.2v-.5l-.2-.2V78.3l.2-.2v-.2l.2-.3.2-.3.2-.4.2-.4v-.3l.2.6.2.6.2.6.2.6.3.5.2.4.2.5.3.3.2.3.4.4.5.4.4.4.4.4.4.4.3.4.4.4.3.4.2.4.3.5.2.4.2.5v.9h18.4Zm21.4-13.1h2.3l.4-.2.4-.2.4-.2.4-.3.4-.2.4-.3.3-.3.2-.3.2-.3.2-.3V64.3h-.1V64h0l.5-.7,7.1,6.5h0V54.4H213.1v-1h.6v-.4l.2-.2V52h.1v-.4h.1V49.8l-.2-.4V49l-.2-.3-.2-.3-.2-.3-.3-.2-.2-.2-.3-.2h-.3l-.3-.2h-3.3l-.3.2-.3.2-.3.2-.3.2-.2.2-.3.3-.3.3-.2.3-.2.3-.2.4-.3.5-.4.6-.3.6-.3.7-.2.7-.2.7-.3.7v.8l-.2.7v.8l-.2.8v9.6l.2.6V69l.2.5.2.4.2.4.3.4.3.3.3.3.3.3.3.3.4.2.4.2h3Zm-58.6.1h1.2l.3-.2h.2l.3-.2.3-.2.2-.2.2-.2.3-.2.2-.3.2-.2v-.3l.2-.2.2-.3V68.1h-8.3V55h2.2v1.3l.2.3v.6l.2.3.2.2.2.2.2.2h11.6v-1l.2-1.3V54.9h-2.7V49l-.2-.5v-.6l-.2-.6-.2-.6-.2-.5-.3-.5-.2-.4-.3-.4-.3-.4-.4-.4-.3-.3-.4-.2-.3-.3-.4-.2h-.4l-.4-.2h-3.6l-.4.2h-.4l-.4.2-.4.3-.3.2-.4.3-.3.3-.3.3-.3.4-.3.4-.2.3-.3.5-.2.4-.2.4-.2.7-.2.6-.2.7-.2.7-.2.7-.2.8v.7l-.2.8V67.9l.2.4v.4l.2.4.2.3.3.6.3.4.4.4.3.4.4.3.3.3.3.3.4.2h.3l.3.2h1.7ZM94,86.5V84.8h.8l.3-.2.3-.2.3-.2.3-.2.3-.3.2-.2.3-.3.2-.3.2-.3v-.3l.2-.3v-.2l.2-.3v-.7h.1v-.2h.1l.2-.5L87,57.5l-4.2,6.9V82.8l.2.3v.3l.2.3.2.2.2.2h.2v.2H87v1.3H57.1V84h2.5l.3-.2h.2l.2-.2.2-.2.2-.3V80.5l-2.2-7.3H47l-2.2,7-.2.5v3.1l.2.2v.4l.2.2h2.2l-.3,1.3H29V84.8h.7l.4-.2.3-.2.3-.2.3-.2.3-.3.2-.2.2-.3.2-.3.2-.3.2-.3.2-.3V80.6h.1v-.2h.1L47.5,39.2l.2-.3V36.8H46.2V34.6H60.8v1.6h-.3l-.3.2-.2.2-.2.2-.2.2-.2.3-.2.3V46l.2.2L72.9,78l.2-.8.2-.8V74.6l.2-.9V32.9l-.2-.3v-.3l-.2-.2-.2-.2v-.2l-.2-.2H70.8V29.7H85.3v.9H84.2l-.3.2-.3.2-.3.2-.2.2-.2.2-.2.3v.2l-.2.3v3h0v7.8l7.3-10.1v-.2h.2v-.4l.2-.2v-.3l.2-.3V27.6l-.2-.5-.2-.4-.2-.4.9-1h.3V26l.2.2.2.2.2.3.3.3.2.3.3.3.3.4.3.3.3.4.3.4.4.4.3.4.4.4.4.4.4.5.4.4.4.4.4.4.4.5.4.4.4.4.4.4.4.4.4.4.4.4.4.3.4.4.4.3.4.3.4.3.4.2.3.2-.5.9H99.7l-.3.2h-.2l-.2.2-.3.3-.3.3-.2.3-.3.3-.3.4-.3.4L92.1,49l10.4,19.1,10-28.9.2-.3V36.8h-1.3V34.6h14.6v1.6h-.3l-.3.2-.2.2-.2.2-.2.2-.2.3v.3l-.2.3v8.2L138,78l.2.7.3.5.3.6.3.5.2.5.3.4.3.4.2.3.3.3.2.3.3.3.2.2.3.2.2.2h.2l.2.2h1.7v2H122.2V84h2.5l.2-.2h.2l.2-.2.2-.2.2-.3V80.5l-2.2-7.3H112l-2.2,7-.2.5v3.5l.2.2v.2h2.2l-.3,1.3Zm20.6-22L118,53.6l3.3,10.9Zm-65,0L53,53.6l3.3,10.9ZM259.7,86V84.6h.9l.2-.2h.2l.2-.2v-.2l.2-.2.2-.2.2-.3v-40h0V38.1l-.2-.3v-.3l-.2-.3-.2-.3-.2-.2-.2-.3h-.2l-.3-.2h-.3V35h15.8v1.4h-.7V37l-.2.2-.2.2-.2.2-.2.3-.2.2v.3l-.2.4V79.2h.1v.2h0v2.2l.2.3v.3l.2.3.2.2.2.3.2.3.2.2.2.2.3.2h.8V86ZM19.5,86l.9-.2.9-.2.8-.2.8-.2.8-.3.7-.3.7-.3.6-.4.6-.3.6-.4.6-.4.5-.5.5-.4.5-.5.4-.4.4-.5.3-.5.4-.5.3-.6.3-.5.3-.5.2-.6.2-.5.2-.6v-.6l.2-.6V68.6l-.2-.5V66.9l-.2-.5-.2-.5v-.5l-.2-.5-.3-.5-.2-.5-.2-.5-.3-.4-.2-.5-.3-.4-.3-.4-.3-.3-.3-.4-.3-.3-.3-.3-.3-.3-.4-.3-.3-.2-.4-.2-.3-.2-.4-.3-.4-.2-.5-.3-.5-.3-.5-.3-.5-.3-.6-.3-.5-.3-.5-.3-.6-.4-.5-.3-.5-.4-.5-.3-.4-.4-.4-.4-.4-.4-.4-.5-.4-.5-.5-.6-.3-.5-.3-.6-.3-.5-.3-.5-.2-.5v-.6l-.2-.5V44.3l.2-.3.2-.3.2-.3.2-.3.2-.3.2-.2.3-.2.2-.2.3-.2h4.5l.4.2.3.2.3.2.3.2.3.2.2.3.2.3.2.3.2.3.2.3V45l.2.4v6.8H24.7V54H39.9V52.4H38.5l-.2-.2-.2-.2-.2-.2-.2-.2v-.2l-.2-.2v-.6H37V50h-.2v-9l-.2-1v-.9L36,38l-.2-.9-.2-.8-.3-.7-.3-.8-.3-.7-.3-.6-.3-.6-.4-.6-.4-.6-.3-.5-.5-.5-.4-.5-.4-.4-.5-.4-.4-.4-.5-.4-.5-.3-.5-.3-.5-.3-.5-.2-.5-.2-.6-.2-.5-.2H20.1l-.5.2H19l-.5.2-.5.2-.5.2-.5.2-.5.2-.5.3-.5.3-.4.3-.5.3-.4.3-.4.3-.4.3-.4.4-.3.4-.4.4-.6.8L11,33l-.5.8-.6.8-.4.8-.5.8-.4.7-.3.8-.3.8-.3.8-.2.8-.2.8-.2.8v6l.2.7.2.7.3.8.2.7.3.6.3.7.4.7.4.6.4.7.4.6.5.6.5.6.5.6.5.6.6.6.6.6.6.5.6.5.7.5.7.5.7.5.7.5.7.4.8.4.7.4.5.4.5.3.4.3.4.4.3.3.3.4.3.4.2.3.2.4v.3l.2.4v3.7l-.2.2v.5l-.2.3-.2.2v.2h-.2v.2H17.4l-.2-.2-.2-.2V71l-.2-.2-.2-.2v-.3l-.2-.3V64.5h.9V61.9H.3L0,63.1H.5l.3.2H1l.2.2.3.2.2.3v.2l.2.3.2.3.2.3v.6l.2.3v6l.2.9V74l.2.8.2.8.2.8.3.7.2.6.3.7.3.6.3.6.3.5.3.5.3.5.4.5.3.4.4.4.4.4.3.3.4.3.4.3.5.3.4.3.4.2.4.2.5.2.4.2h.5l.5.2h6.4Z" fill-rule="evenodd"/>
</g>
</svg>